<svg id="Capa_1" data-name="Capa 1" xmlns="http://www.w3.org/2000/svg" viewBox="0 0 316.44 311.41"><defs><style>.cls-1,.cls-3{fill:#fff;}.cls-2{fill:none;}.cls-3{font-size:80.08px;font-family:JosefinSans-Bold, Josefin Sans;font-weight:700;}.cls-4{letter-spacing:-0.02em;}.cls-5{letter-spacing:0em;}.cls-6{font-size:44.21px;fill:#c2c3c6;font-family:CenturyGothic, Century Gothic;}</style></defs><title>Logo</title><path class="cls-1" d="M339.39,371.09a3.57,3.57,0,0,0-.63,3.53,3,3,0,0,0,1.88,2.15,3.08,3.08,0,0,0,1.25.19l-.63-.19a4.37,4.37,0,0,0,3.55-.79q3.13-3.32-.83-7.43Q340.64,369.33,339.39,371.09Z" transform="translate(-153.51 -247.07)"/><path class="cls-1" d="M293.07,288.72h-.21A11.28,11.28,0,0,0,293,286a21.77,21.77,0,0,0-1.36-5.09,10.5,10.5,0,0,0-3.75-5.28,4.83,4.83,0,0,0-2.09-.79,8,8,0,0,0-7.3,2.35c-.14.26-.39.65-.73,1.17a12.69,12.69,0,0,0-1.15,3.43,18.26,18.26,0,0,0-.42,5.57,34.21,34.21,0,0,0,5.32,14A37.4,37.4,0,0,0,292.86,313h.21Z" transform="translate(-153.51 -247.07)"/><path class="cls-1" d="M292.45,340a22.68,22.68,0,0,0-2.93-6.06,12.43,12.43,0,0,0-1.46-1.17c-3.33-1.83-6.12-1.7-8.34.39q-6.25,7.23-6.26,20.54a44.37,44.37,0,0,0,2.09,13.4q1.88,5.39,6.67,6.36a7.7,7.7,0,0,0,4.38-1.17,14.79,14.79,0,0,0,4-4.7,19.39,19.39,0,0,0,2-5.48,53,53,0,0,0,.73-7.24c0-1.69-.07-4.89-.21-9.58A45.85,45.85,0,0,0,292.45,340Z" transform="translate(-153.51 -247.07)"/><path class="cls-1" d="M311.5,247.07a84.73,84.73,0,1,0,84.72,84.73A84.73,84.73,0,0,0,311.5,247.07Zm35.61,16.8a26.57,26.57,0,0,1,10.34-1.55,21.4,21.4,0,0,0,18.35,38.43,21,21,0,0,0,5.36-2.85,26.6,26.6,0,1,1-34.05-34Zm29,86.29q-3.35,10-17.11,15.06a6.11,6.11,0,0,1,.21,1.57q1,8.22-7.72,13.3a16.87,16.87,0,0,1-8.77,2.35,10.76,10.76,0,0,1-4.17-.78,8.19,8.19,0,0,1-5.32-5.77A8.91,8.91,0,0,1,334.8,368a10.34,10.34,0,0,1,4.59-3.52c-2.23-1.69-3.86-3-4.91-3.91-.76-.67-1.7-1.58-2.83-2.73a62.41,62.41,0,0,1-8,15.54q-6.17,8.71-13.46,8.71h-1.46c-1.25-.13-2.3-.26-3.13-.39a11.79,11.79,0,0,1-3.23-1.18,8.9,8.9,0,0,1-3.55-3.52,29.84,29.84,0,0,1-2.82-6.45,30.78,30.78,0,0,1-2.92,3.71,27,27,0,0,1-6.88,5.29,19.77,19.77,0,0,1-8.77,2.34h-1a17.34,17.34,0,0,1-5.21-.78,14.62,14.62,0,0,1-6.26-3.52q-8.57-7.64-8.14-23.67.63-22.5,13.14-29.16a19.46,19.46,0,0,1,14.4-1.56,24,24,0,0,1,5.42,2.35,26.05,26.05,0,0,1,3.34,2.34v-8.6h-.21a43,43,0,0,1-18.15-18.79q-6.25-12.31-3.75-21.91a14.8,14.8,0,0,1,5.94-8.8,18.64,18.64,0,0,1,11-3.13h.41a45.35,45.35,0,0,1,5.64.78,1.72,1.72,0,0,1,.52.1,1.26,1.26,0,0,1,.52.29,16.65,16.65,0,0,1,8.34,5.87q5.43,6.85,6.26,19.17a4.8,4.8,0,0,1,.21,1.57v76.5c.56,1.83,1.46,2.87,2.72,3.13a5.87,5.87,0,0,0,5-1.76q6.7-7.44,10-19.52a14.68,14.68,0,0,1-1-2,20.17,20.17,0,0,1-1.36-6.07,21.69,21.69,0,0,1,1.25-8.71,14.87,14.87,0,0,1,4.07-6.06,27.86,27.86,0,0,1,4.8-3.43,20.43,20.43,0,0,1,4.48-1.76,16.13,16.13,0,0,1,4.18-1q7.71,0,11.68,4.1a10.62,10.62,0,0,1,3.34,9.2,2.18,2.18,0,0,1-.94,1.86,3.3,3.3,0,0,1-2,.68,4.69,4.69,0,0,1-1.46-.58,2.59,2.59,0,0,1-.94-1,2.86,2.86,0,0,1-.31-1.37,5.82,5.82,0,0,0-1.88-5.28A5.08,5.08,0,0,0,349.4,330a4.7,4.7,0,0,0-3.75,0q-4.18,2-4.59,7.24a20.41,20.41,0,0,0,.73,8.31q1.14,3.42,5.94,7.73,2.08,1.36,3.76,2.54a23.44,23.44,0,0,1,5,4.5q11.68-4.11,14.19-11.74a2.46,2.46,0,0,1,3.45-1.76A2.51,2.51,0,0,1,376.11,350.16Z" transform="translate(-153.51 -247.07)"/><path class="cls-2" d="M327.53,352.75q-3.34,12.08-10,19.52a5.87,5.87,0,0,1-5,1.76c-1.26-.26-2.16-1.3-2.72-3.13V294.4a4.8,4.8,0,0,0-.21-1.57q-.82-12.31-6.26-19.17a16.65,16.65,0,0,0-8.34-5.87,1.26,1.26,0,0,0-.52-.29,1.72,1.72,0,0,0-.52-.1,45.35,45.35,0,0,0-5.64-.78h-.41a18.64,18.64,0,0,0-11,3.13,14.8,14.8,0,0,0-5.94,8.8q-2.5,9.58,3.75,21.91a43,43,0,0,0,18.15,18.79h.21v8.6a26.05,26.05,0,0,0-3.34-2.34,24,24,0,0,0-5.42-2.35,19.46,19.46,0,0,0-14.4,1.56q-12.51,6.66-13.14,29.16-.42,16,8.14,23.67a14.62,14.62,0,0,0,6.26,3.52,17.34,17.34,0,0,0,5.21.78h1a19.77,19.77,0,0,0,8.77-2.34,27,27,0,0,0,6.88-5.29,30.78,30.78,0,0,0,2.92-3.71,29.84,29.84,0,0,0,2.82,6.45,8.9,8.9,0,0,0,3.55,3.52,11.79,11.79,0,0,0,3.23,1.18c.83.13,1.88.26,3.13.39h1.46q7.31,0,13.46-8.71a62.41,62.41,0,0,0,8-15.54c-.42-.42-.87-.88-1.34-1.38A19.09,19.09,0,0,1,327.53,352.75ZM292.86,313a37.4,37.4,0,0,1-11.37-11.64,34.21,34.21,0,0,1-5.32-14,18.26,18.26,0,0,1,.42-5.57,12.69,12.69,0,0,1,1.15-3.43c.34-.52.59-.91.73-1.17a8,8,0,0,1,7.3-2.35,4.83,4.83,0,0,1,2.09.79,10.5,10.5,0,0,1,3.75,5.28A21.77,21.77,0,0,1,293,286a11.28,11.28,0,0,1-.11,2.73h.21V313Zm-.31,49.11a19.39,19.39,0,0,1-2,5.48,14.79,14.79,0,0,1-4,4.7,7.7,7.7,0,0,1-4.38,1.17q-4.8-1-6.67-6.36a44.37,44.37,0,0,1-2.09-13.4q0-13.31,6.26-20.54c2.22-2.09,5-2.22,8.34-.39a12.43,12.43,0,0,1,1.46,1.17,22.68,22.68,0,0,1,2.93,6.06,45.85,45.85,0,0,1,.62,5.29c.14,4.69.21,7.89.21,9.58A53,53,0,0,1,292.55,362.09Z" transform="translate(-153.51 -247.07)"/><path class="cls-2" d="M374.13,346.83a2.46,2.46,0,0,0-3.45,1.76q-2.51,7.64-14.19,11.74a23.44,23.44,0,0,0-5-4.5q-1.68-1.17-3.76-2.54-4.8-4.31-5.94-7.73a20.41,20.41,0,0,1-.73-8.31q.4-5.29,4.59-7.24a4.7,4.7,0,0,1,3.75,0,5.08,5.08,0,0,1,2.09,1.37,5.82,5.82,0,0,1,1.88,5.28,2.86,2.86,0,0,0,.31,1.37,2.59,2.59,0,0,0,.94,1,4.69,4.69,0,0,0,1.46.58,3.3,3.3,0,0,0,2-.68,2.18,2.18,0,0,0,.94-1.86,10.62,10.62,0,0,0-3.34-9.2q-4-4.1-11.68-4.1a16.13,16.13,0,0,0-4.18,1,20.43,20.43,0,0,0-4.48,1.76,27.86,27.86,0,0,0-4.8,3.43,14.87,14.87,0,0,0-4.07,6.06,21.69,21.69,0,0,0-1.25,8.71,20.17,20.17,0,0,0,1.36,6.07,14.68,14.68,0,0,0,1,2l.18-.63a8.22,8.22,0,0,0,.41-2c.56-1.7,1.74-2.28,3.55-1.76s2.5,1.43,2.09,3.13c-.28.91-.63,1.89-1.05,2.93s-.68,2.24-1.06,3.34c1.13,1.15,2.07,2.06,2.83,2.73,1,.91,2.68,2.22,4.91,3.91A10.34,10.34,0,0,0,334.8,368a8.91,8.91,0,0,0-1.57,7.93,8.19,8.19,0,0,0,5.32,5.77,10.76,10.76,0,0,0,4.17.78,16.87,16.87,0,0,0,8.77-2.35q8.76-5.08,7.72-13.3a6.11,6.11,0,0,0-.21-1.57q13.77-5.09,17.11-15.06A2.51,2.51,0,0,0,374.13,346.83ZM344.81,376a4.37,4.37,0,0,1-3.55.79l.63.19a3.08,3.08,0,0,1-1.25-.19,3,3,0,0,1-1.88-2.15,3.57,3.57,0,0,1,.63-3.53q1.25-1.75,4.59-2.54Q347.94,372.66,344.81,376Z" transform="translate(-153.51 -247.07)"/><path class="cls-2" d="M333.76,351.53c.41-1.7-.28-2.74-2.09-3.13s-3,.06-3.55,1.76a8.22,8.22,0,0,1-.41,2l-.18.63a19.09,19.09,0,0,0,2.78,3.67c.47.5.92,1,1.34,1.38.38-1.1.74-2.21,1.06-3.34S333.48,352.44,333.76,351.53Z" transform="translate(-153.51 -247.07)"/><path class="cls-2" d="M365.15,313.93a26.54,26.54,0,0,0,16-16,21,21,0,0,1-5.36,2.85,21.4,21.4,0,0,1-18.35-38.43,26.61,26.61,0,1,0,7.7,51.61Z" transform="translate(-153.51 -247.07)"/><text class="cls-3" transform="translate(0 241.88) scale(1.03 1)">D<tspan class="cls-4" x="61.74" y="0">r</tspan><tspan class="cls-5" x="92.97" y="0">eams!</tspan></text><text class="cls-6" transform="translate(59.4 297.85)">New Look</text></svg>