<svg id="Capa_2" data-name="Capa 2" xmlns="http://www.w3.org/2000/svg" viewBox="0 0 930.7 1097.4"><defs><style>.cls-1,.cls-3{fill:#fff;}.cls-2{fill:none;}.cls-3{font-size:235.51px;font-family:JosefinSans-Bold, Josefin Sans;font-weight:700;}.cls-4{letter-spacing:-0.02em;}.cls-5{font-size:130.03px;fill:#c2c3c6;font-family:CenturyGothic, Century Gothic;}</style></defs><title>logo_dreams</title><path class="cls-1" d="M950.44,860.75a15.21,15.21,0,0,0-2.67,15,12.94,12.94,0,0,0,13.31,10l-2.66-.83a18.62,18.62,0,0,0,15.08-3.33q13.32-14.13-3.55-31.61Q955.76,853.27,950.44,860.75Z" transform="translate(-366.47 -333.32)"/><path class="cls-1" d="M753.47,510.45h-.89a49,49,0,0,0,.44-11.64q-.45-6.66-5.77-21.64t-16-22.46a20.79,20.79,0,0,0-8.87-3.33q-16.86-3.31-31,10-.9,1.68-3.11,5t-4.88,14.56a78.12,78.12,0,0,0-1.78,23.71q3.54,29.13,22.63,59.49a159.78,159.78,0,0,0,48.36,49.51h.89Z" transform="translate(-366.47 -333.32)"/><path class="cls-1" d="M750.81,728.45a96.64,96.64,0,0,0-12.43-25.79,57.2,57.2,0,0,0-6.21-5q-21.3-11.64-35.49,1.66-26.61,30.79-26.62,87.37.88,34.13,8.88,57t28.39,27q8,.82,18.63-5a62,62,0,0,0,16.86-20,82.67,82.67,0,0,0,8.43-23.29,228.74,228.74,0,0,0,3.1-30.79q0-10.8-.88-40.77A190.31,190.31,0,0,0,750.81,728.45Z" transform="translate(-366.47 -333.32)"/><path class="cls-1" d="M831.82,333.32c-199,0-360.32,161.32-360.32,360.32S632.82,1054,831.82,1054s360.32-161.32,360.32-360.32S1030.82,333.32,831.82,333.32Zm151.44,71.44a112.83,112.83,0,0,1,44-6.58,91,91,0,1,0,100.84,151.31A113.14,113.14,0,1,1,983.26,404.76Zm123.33,367q-14.19,42.43-72.75,64.07a26.33,26.33,0,0,1,.88,6.66q4.44,34.93-32.82,56.57a71.77,71.77,0,0,1-37.27,10,45.9,45.9,0,0,1-17.75-3.33q-17.75-6.64-22.62-24.55t6.65-33.69q6.21-9.15,19.53-15-14.21-10.8-20.86-16.64c-3.23-2.82-7.26-6.69-12.05-11.58a265.39,265.39,0,0,1-34.08,66.08q-26.18,37-57.23,37H820q-8-.84-13.31-1.67t-13.75-5q-8.44-4.16-15.08-15t-12-27.46a129.91,129.91,0,0,1-12.42,15.81,114.16,114.16,0,0,1-29.28,22.47,84,84,0,0,1-37.27,10h-4.44a73.86,73.86,0,0,1-22.18-3.32,62.65,62.65,0,0,1-26.62-15q-36.36-32.46-34.6-100.68,2.65-95.67,55.9-124,27.48-15,61.22-6.65a104.34,104.34,0,0,1,23.07,10,112.49,112.49,0,0,1,14.2,10V640.26h-.89Q702,612.8,675.38,560.38t-16-93.19q6.21-24.12,25.29-37.44t46.58-13.32h1.78a194.06,194.06,0,0,1,24,3.33,7.64,7.64,0,0,1,2.21.42,5.72,5.72,0,0,1,2.22,1.25,70.89,70.89,0,0,1,35.49,25q23.07,29.13,26.62,81.54a20.69,20.69,0,0,1,.89,6.65V859.92Q828,871.59,836,873.23q11.52,1.68,21.29-7.49,28.53-31.61,42.72-83a64.24,64.24,0,0,1-4.14-8.53,86.82,86.82,0,0,1-5.76-25.8q-.89-20.79,5.32-37t17.3-25.8A116.64,116.64,0,0,1,933.13,671a85.22,85.22,0,0,1,19.08-7.49A69.08,69.08,0,0,1,970,659.39q32.82,0,49.69,17.48,16.84,16.65,14.2,39.1a9.28,9.28,0,0,1-4,7.91,14.05,14.05,0,0,1-8.43,2.91,20,20,0,0,1-6.21-2.5,10.9,10.9,0,0,1-4-4.16,12.25,12.25,0,0,1-1.33-5.82,24.75,24.75,0,0,0-8-22.47c-1.78-2.21-4.75-4.16-8.88-5.82a20.06,20.06,0,0,0-16,0q-17.74,8.33-19.52,30.79-1.78,20.81,3.11,35.36T985.93,785q8.85,5.84,16,10.82,13.3,9.17,21.29,19.14,49.68-17.47,60.34-49.93,3.53-10.8,14.64-7.48T1106.59,771.72Z" transform="translate(-366.47 -333.32)"/><path class="cls-2" d="M900,782.75q-14.22,51.36-42.72,83-9.76,9.16-21.29,7.49-8-1.65-11.54-13.31V534.58a20.69,20.69,0,0,0-.89-6.65q-3.55-52.42-26.62-81.54a70.89,70.89,0,0,0-35.49-25,5.72,5.72,0,0,0-2.22-1.25,7.64,7.64,0,0,0-2.21-.42,194.06,194.06,0,0,0-24-3.33h-1.78q-27.51,0-46.58,13.32t-25.29,37.44q-10.65,40.77,16,93.19t77.2,79.88h.89v36.61a112.49,112.49,0,0,0-14.2-10,104.34,104.34,0,0,0-23.07-10q-33.74-8.31-61.22,6.65-53.24,28.31-55.9,124-1.77,68.24,34.6,100.68a62.65,62.65,0,0,0,26.62,15,73.86,73.86,0,0,0,22.18,3.32h4.44a84,84,0,0,0,37.27-10,114.16,114.16,0,0,0,29.28-22.47,129.91,129.91,0,0,0,12.42-15.81q5.33,16.66,12,27.46t15.08,15q8.43,4.17,13.75,5T820,907.35h6.21q31,0,57.23-37a265.39,265.39,0,0,0,34.08-66.08c-1.8-1.82-3.69-3.78-5.69-5.89A81.58,81.58,0,0,1,900,782.75ZM752.58,613.63a159.78,159.78,0,0,1-48.36-49.51q-19.08-30.36-22.63-59.49a78.12,78.12,0,0,1,1.78-23.71q2.67-11.24,4.88-14.56t3.11-5q14.17-13.29,31-10a20.79,20.79,0,0,1,8.87,3.33q10.65,7.49,16,22.46T753,498.81a49,49,0,0,1-.44,11.64h.89V613.63Zm-1.33,208.85a82.67,82.67,0,0,1-8.43,23.29,62,62,0,0,1-16.86,20q-10.65,5.84-18.63,5-20.43-4.15-28.39-27t-8.88-57q0-56.58,26.62-87.37,14.19-13.29,35.49-1.66a57.2,57.2,0,0,1,6.21,5,96.64,96.64,0,0,1,12.43,25.79,190.31,190.31,0,0,1,2.66,22.47q.87,30,.88,40.77A228.74,228.74,0,0,1,751.25,822.48Z" transform="translate(-366.47 -333.32)"/><path class="cls-2" d="M1098.17,757.58q-11.12-3.32-14.64,7.48-10.65,32.46-60.34,49.93-8-10-21.29-19.14-7.12-5-16-10.82-20.43-18.28-25.29-32.86t-3.11-35.36q1.77-22.47,19.52-30.79a20.06,20.06,0,0,1,16,0c4.13,1.66,7.1,3.61,8.88,5.82a24.75,24.75,0,0,1,8,22.47,12.25,12.25,0,0,0,1.33,5.82,10.9,10.9,0,0,0,4,4.16,20,20,0,0,0,6.21,2.5,14.05,14.05,0,0,0,8.43-2.91,9.28,9.28,0,0,0,4-7.91q2.65-22.46-14.2-39.1Q1002.78,659.4,970,659.39a69.08,69.08,0,0,0-17.74,4.16A85.22,85.22,0,0,0,933.13,671a116.64,116.64,0,0,0-20.41,14.56q-11.1,9.58-17.3,25.8t-5.32,37a86.82,86.82,0,0,0,5.76,25.8,64.24,64.24,0,0,0,4.14,8.53c.25-.9.51-1.79.76-2.71a33.7,33.7,0,0,0,1.77-8.32q3.54-10.8,15.09-7.49,11.52,2.5,8.87,13.31c-1.19,3.89-2.66,8.05-4.44,12.49q-2.07,7.19-4.52,14.21c4.79,4.89,8.82,8.76,12.05,11.58q6.66,5.83,20.86,16.64-13.32,5.84-19.53,15-11.53,15.81-6.65,33.69t22.62,24.55A45.9,45.9,0,0,0,964.63,909a71.77,71.77,0,0,0,37.27-10q37.26-21.62,32.82-56.57a26.33,26.33,0,0,0-.88-6.66q58.56-21.63,72.75-64.07Q1109.26,760.92,1098.17,757.58Zm-124.67,124a18.62,18.62,0,0,1-15.08,3.33l2.66.83a12.94,12.94,0,0,1-13.31-10,15.21,15.21,0,0,1,2.67-15q5.31-7.49,19.51-10.81Q986.79,867.4,973.5,881.55Z" transform="translate(-366.47 -333.32)"/><path class="cls-2" d="M926.49,777.54q2.65-10.8-8.87-13.31-11.55-3.32-15.09,7.49a33.7,33.7,0,0,1-1.77,8.32c-.25.92-.51,1.81-.76,2.71a81.58,81.58,0,0,0,11.84,15.6c2,2.11,3.89,4.07,5.69,5.89q2.44-7,4.52-14.21C923.83,785.59,925.3,781.43,926.49,777.54Z" transform="translate(-366.47 -333.32)"/><path class="cls-2" d="M1060,617.63a112.89,112.89,0,0,0,68.09-68.14,91,91,0,1,1-100.84-151.31A113.15,113.15,0,1,0,1060,617.63Z" transform="translate(-366.47 -333.32)"/><text class="cls-3" transform="translate(0 892.88) scale(1.03 1)">D<tspan class="cls-4" x="181.58" y="0">r</tspan><tspan x="273.43" y="0">eams!</tspan></text><text class="cls-5" transform="translate(154.76 1057.53)">New Look</text></svg>