<svg xmlns="http://www.w3.org/2000/svg" viewBox="0 0 292 291"><defs><style>.cls-1,.cls-2{fill:#fff;}.cls-1{opacity:0.79;}.cls-2{opacity:0.71;}</style></defs><title>subir-imagen</title><g id="Capa_2" data-name="Capa 2"><g id="Capa_7" data-name="Capa 7"><rect class="cls-1" width="292" height="291"/><path class="cls-2" d="M146,190h-4.12c-.66-.06-1.31-.14-2-.19a43.46,43.46,0,0,1-8.91-1.65,46.36,46.36,0,0,1-29.65-26.3,44.68,44.68,0,0,1-3.5-14.06c0-.68-.13-1.35-.2-2v-4.11c.08-.85.14-1.7.23-2.54a46.3,46.3,0,0,1,27.77-37.93,45.1,45.1,0,0,1,14.26-3.57c.66-.05,1.31-.13,2-.19H146l2.94.29a44.44,44.44,0,0,1,13.43,3.53,46.4,46.4,0,0,1,24.13,24.27A44.78,44.78,0,0,1,190,139.68c.05.66.13,1.32.19,2v4.11c0,.18-.07.36-.09.54-.25,2-.37,4.1-.75,6.11a46.31,46.31,0,0,1-26.78,33.66,44.68,44.68,0,0,1-14.68,3.74Zm-7.83-40.49V166.6a8.54,8.54,0,0,0,.12,1.43,5.79,5.79,0,0,0,9,3.54,5.91,5.91,0,0,0,2.44-5.11c0-5.45,0-10.9,0-16.35v-.62h.71c5.59,0,11.17,0,16.76,0a5.76,5.76,0,0,0,0-11.52c-5.62,0-11.24,0-16.86,0h-.64v-.68q0-8.21,0-16.41a7.84,7.84,0,0,0-.13-1.53,5.78,5.78,0,0,0-11.42,1.35c0,5.54,0,11.07,0,16.61V138H121.05a8.29,8.29,0,0,0-1.32.1,5.79,5.79,0,0,0-4.69,6.29,5.72,5.72,0,0,0,5.45,5.13c4.73.08,9.46,0,14.18,0Z"/></g></g></svg>