<svg xmlns="http://www.w3.org/2000/svg" viewBox="0 0 319.19 319.19"><defs><style>.cls-1{fill:#fff;}.cls-2{fill:none;}</style></defs><title>Recurso 1</title><g id="Capa_2" data-name="Capa 2"><g id="Capa_7" data-name="Capa 7"><path class="cls-1" d="M212.13,233.61a6.77,6.77,0,0,0-1.18,6.64,5.74,5.74,0,0,0,5.9,4.42l-1.18-.37a8.25,8.25,0,0,0,6.68-1.47q5.9-6.27-1.57-14Q214.48,230.31,212.13,233.61Z"/><path class="cls-1" d="M124.89,78.46h-.39a22.31,22.31,0,0,0,.19-5.16q-.19-3-2.55-9.58a19.81,19.81,0,0,0-7.08-10,9.33,9.33,0,0,0-3.93-1.47q-7.47-1.47-13.75,4.42A24.29,24.29,0,0,1,96,58.92a24.1,24.1,0,0,0-2.16,6.45,34.64,34.64,0,0,0-.78,10.51q1.56,12.9,10,26.35a70.75,70.75,0,0,0,21.42,21.93h.39Z"/><path class="cls-1" d="M123.71,175a42.64,42.64,0,0,0-5.5-11.42,26.48,26.48,0,0,0-2.75-2.21q-9.43-5.16-15.72.74Q87.95,175.76,88,200.81q.39,15.12,3.93,25.25t12.57,12c2.36.25,5.11-.48,8.26-2.21a27.51,27.51,0,0,0,7.46-8.84,36.69,36.69,0,0,0,3.74-10.32A101.38,101.38,0,0,0,125.28,203q0-4.78-.39-18.05A85,85,0,0,0,123.71,175Z"/><path class="cls-1" d="M159.6,0A159.6,159.6,0,1,0,319.19,159.6,159.59,159.59,0,0,0,159.6,0Zm67.07,31.64a49.85,49.85,0,0,1,19.48-2.91,40.31,40.31,0,1,0,44.67,67,50.11,50.11,0,1,1-64.15-64.11ZM281.3,194.18Q275,213,249.07,222.56a11.44,11.44,0,0,1,.4,2.94q2,15.48-14.54,25.06A31.81,31.81,0,0,1,218.42,255a20.27,20.27,0,0,1-7.86-1.48,15.37,15.37,0,0,1-10-10.87,16.74,16.74,0,0,1,2.94-14.93,19.68,19.68,0,0,1,8.65-6.63q-6.28-4.79-9.24-7.37-2.14-1.87-5.33-5.13a117.64,117.64,0,0,1-15.1,29.27q-11.6,16.4-25.34,16.4h-2.76c-2.35-.25-4.32-.49-5.89-.74a22.36,22.36,0,0,1-6.09-2.21,16.83,16.83,0,0,1-6.68-6.63,55.48,55.48,0,0,1-5.31-12.16,57.73,57.73,0,0,1-5.5,7,50.73,50.73,0,0,1-13,10,37.13,37.13,0,0,1-16.51,4.42h-2a32.87,32.87,0,0,1-9.83-1.47,27.82,27.82,0,0,1-11.79-6.64Q55.72,231.4,56.51,201.18q1.17-42.37,24.76-54.91,12.17-6.63,27.11-3a46.08,46.08,0,0,1,10.22,4.42,50,50,0,0,1,6.29,4.43V136h-.39a80.94,80.94,0,0,1-34.2-35.38Q78.53,77.35,83.23,59.29a28,28,0,0,1,11.2-16.58q8.44-5.9,20.63-5.9h.79a85.43,85.43,0,0,1,10.61,1.48,3.47,3.47,0,0,1,1,.18,2.71,2.71,0,0,1,1,.55,31.47,31.47,0,0,1,15.72,11.06Q154.37,63,155.94,86.2a9.33,9.33,0,0,1,.39,2.94v144.1c1,3.45,2.75,5.41,5.11,5.9q5.1.75,9.43-3.32,12.63-14,18.92-36.76a28.51,28.51,0,0,1-1.83-3.78,38.37,38.37,0,0,1-2.55-11.42,41,41,0,0,1,2.35-16.4A28,28,0,0,1,195.43,156a51.28,51.28,0,0,1,9-6.44,37.27,37.27,0,0,1,8.45-3.32,30.09,30.09,0,0,1,7.86-1.84q14.53,0,22,7.74,7.46,7.37,6.28,17.32a4.12,4.12,0,0,1-1.76,3.5,6.25,6.25,0,0,1-3.74,1.29,8.71,8.71,0,0,1-2.75-1.11,4.94,4.94,0,0,1-1.77-1.84,5.46,5.46,0,0,1-.59-2.58,11,11,0,0,0-3.53-9.95,9.64,9.64,0,0,0-3.93-2.58,8.89,8.89,0,0,0-7.08,0q-7.86,3.69-8.64,13.63-.79,9.22,1.37,15.67t11.2,14.56c2.62,1.72,5,3.31,7.08,4.79a43.44,43.44,0,0,1,9.43,8.47q22-7.74,26.72-22.11,1.57-4.78,6.49-3.32T281.3,194.18Z"/><path class="cls-2" d="M189.79,199.06q-6.28,22.75-18.92,36.76-4.32,4.06-9.43,3.32c-2.36-.49-4.07-2.45-5.11-5.9V89.14a9.33,9.33,0,0,0-.39-2.94Q154.36,63,144.15,50.08A31.47,31.47,0,0,0,128.43,39a2.71,2.71,0,0,0-1-.55,3.47,3.47,0,0,0-1-.18,85.43,85.43,0,0,0-10.61-1.48h-.79q-12.18,0-20.63,5.9a28,28,0,0,0-11.2,16.58q-4.71,18.06,7.07,41.28A80.94,80.94,0,0,0,124.5,136h.39v16.22a50,50,0,0,0-6.29-4.43,46.08,46.08,0,0,0-10.22-4.42q-14.94-3.67-27.11,3Q57.69,158.8,56.51,201.18q-.78,30.23,15.32,44.59a27.82,27.82,0,0,0,11.79,6.64,32.87,32.87,0,0,0,9.83,1.47h2a37.13,37.13,0,0,0,16.51-4.42,50.73,50.73,0,0,0,13-10,57.73,57.73,0,0,0,5.5-7,55.48,55.48,0,0,0,5.31,12.16,16.83,16.83,0,0,0,6.68,6.63,22.36,22.36,0,0,0,6.09,2.21c1.57.25,3.54.49,5.89.74h2.76q13.74,0,25.34-16.4a117.64,117.64,0,0,0,15.1-29.27c-.8-.81-1.64-1.67-2.52-2.61A36.18,36.18,0,0,1,189.79,199.06Zm-65.29-74.9a70.75,70.75,0,0,1-21.42-21.93q-8.46-13.45-10-26.35a34.64,34.64,0,0,1,.78-10.51A24.1,24.1,0,0,1,96,58.92a24.29,24.29,0,0,0,1.38-2.21q6.28-5.88,13.75-4.42a9.33,9.33,0,0,1,3.93,1.47,19.81,19.81,0,0,1,7.08,10q2.35,6.63,2.55,9.58a22.31,22.31,0,0,1-.19,5.16h.39v45.7Zm-.59,92.5A36.69,36.69,0,0,1,120.17,227a27.51,27.51,0,0,1-7.46,8.84c-3.15,1.73-5.9,2.46-8.26,2.21q-9-1.83-12.57-12T88,200.81q0-25,11.79-38.69,6.29-5.9,15.72-.74a26.48,26.48,0,0,1,2.75,2.21,42.64,42.64,0,0,1,5.5,11.42,85,85,0,0,1,1.18,10q.39,13.26.39,18.05A101.38,101.38,0,0,1,123.91,216.66Z"/><path class="cls-2" d="M277.57,187.91q-4.92-1.47-6.49,3.32-4.71,14.37-26.72,22.11a43.44,43.44,0,0,0-9.43-8.47c-2.11-1.48-4.46-3.07-7.08-4.79q-9-8.12-11.2-14.56t-1.37-15.67q.78-9.94,8.64-13.63a8.89,8.89,0,0,1,7.08,0,9.64,9.64,0,0,1,3.93,2.58,11,11,0,0,1,3.53,9.95,5.46,5.46,0,0,0,.59,2.58,4.94,4.94,0,0,0,1.77,1.84,8.71,8.71,0,0,0,2.75,1.11,6.25,6.25,0,0,0,3.74-1.29,4.12,4.12,0,0,0,1.76-3.5q1.19-10-6.28-17.32-7.47-7.74-22-7.74a30.09,30.09,0,0,0-7.86,1.84,37.27,37.27,0,0,0-8.45,3.32,51.28,51.28,0,0,0-9,6.44,28,28,0,0,0-7.67,11.43,41,41,0,0,0-2.35,16.4A38.37,38.37,0,0,0,188,195.28a28.51,28.51,0,0,0,1.83,3.78c.11-.4.23-.79.34-1.2a14.72,14.72,0,0,0,.78-3.68q1.58-4.78,6.69-3.32,5.1,1.11,3.93,5.9c-.53,1.72-1.18,3.56-2,5.53q-.92,3.18-2,6.29,3.18,3.25,5.33,5.13,3,2.58,9.24,7.37a19.68,19.68,0,0,0-8.65,6.63,16.74,16.74,0,0,0-2.94,14.93,15.37,15.37,0,0,0,10,10.87,20.27,20.27,0,0,0,7.86,1.48,31.81,31.81,0,0,0,16.51-4.43q16.5-9.57,14.54-25.06a11.44,11.44,0,0,0-.4-2.94Q275,213,281.3,194.18,282.48,189.4,277.57,187.91Zm-55.22,54.92a8.25,8.25,0,0,1-6.68,1.47l1.18.37a5.74,5.74,0,0,1-5.9-4.42,6.77,6.77,0,0,1,1.18-6.64q2.35-3.31,8.65-4.79Q228.24,236.56,222.35,242.83Z"/><path class="cls-2" d="M201.53,196.76q1.17-4.78-3.93-5.9-5.11-1.47-6.69,3.32a14.72,14.72,0,0,1-.78,3.68c-.11.41-.23.8-.34,1.2A36.18,36.18,0,0,0,195,206c.88.94,1.72,1.8,2.52,2.61q1.08-3.11,2-6.29C200.35,200.32,201,198.48,201.53,196.76Z"/><path class="cls-2" d="M260.66,125.93a50,50,0,0,0,30.16-30.18,40.31,40.31,0,1,1-44.67-67,50.12,50.12,0,1,0,14.51,97.2Z"/></g></g></svg>