<svg xmlns="http://www.w3.org/2000/svg" viewBox="0 0 61.29 84.68"><defs><style>.cls-1{fill:#fff;}</style></defs><title>Recurso 2</title><g id="Capa_2" data-name="Capa 2"><g id="Capa_5" data-name="Capa 5"><path class="cls-1" d="M.11,8C0,8.83,0,9.69,0,10.55V74.12a18.85,18.85,0,0,0,.68,5.61c1.21,3.9,4,5.74,7.25,4.63a13.62,13.62,0,0,0,3.47-1.79q22.5-16,45-32.07a12.69,12.69,0,0,0,3.41-3.37A8.31,8.31,0,0,0,59.38,37a15.64,15.64,0,0,0-3-2.82Q33.89,18.1,11.38,2.05A12.92,12.92,0,0,0,7,0H5.41A5.93,5.93,0,0,0,2.29,1.85,10.84,10.84,0,0,0,.11,8Z"/></g></g></svg>