<svg id="Capa_1" data-name="Capa 1" xmlns="http://www.w3.org/2000/svg" viewBox="0 0 1791.44 1007.32"><defs><style>.cls-1{fill:#ffd22f;}.cls-2{fill:#f64a44;}.cls-3{fill:#fff;}.cls-4{fill:#ff7b62;}.cls-5{fill:#0b0f3e;}.cls-6{fill:#5f6ffd;}.cls-7{fill:#c293f9;}.cls-8{fill:#7923cc;}</style></defs><title>Fondo-Registro</title><circle class="cls-1" cx="286.03" cy="653.59" r="133.26"/><ellipse class="cls-2" cx="360.64" cy="684.4" rx="62.51" ry="203.49" transform="translate(-490.78 736.75) rotate(-68.41)"/><path class="cls-1" d="M367.53,681.55,261.69,636.38a16.85,16.85,0,0,1-7.93-24.19c33.65-55,104.06-79.13,165.17-53.58,61.45,25.69,93.72,93.3,77.65,156.13a16.88,16.88,0,0,1-22.88,11.2Z" transform="translate(-82.34 -31.18)"/><path d="M231.09,276.69a1.5,1.5,0,0,0,0-3,1.5,1.5,0,0,0,0,3Z" transform="translate(-82.34 -31.18)"/><path class="cls-3" d="M247.87,330.36a1.5,1.5,0,0,0,0-3,1.5,1.5,0,0,0,0,3Z" transform="translate(-82.34 -31.18)"/><path class="cls-3" d="M231.09,278.36a1.5,1.5,0,0,0,0-3,1.5,1.5,0,0,0,0,3Z" transform="translate(-82.34 -31.18)"/><path class="cls-3" d="M132,208.55c3.92,0,7.68-3.45,7.5-7.5a7.63,7.63,0,0,0-7.5-7.5c-3.93,0-7.69,3.45-7.5,7.5a7.63,7.63,0,0,0,7.5,7.5Z" transform="translate(-82.34 -31.18)"/><path class="cls-3" d="M289.8,447.07c3.93,0,7.68-3.45,7.5-7.5a7.63,7.63,0,0,0-7.5-7.5c-3.92,0-7.68,3.45-7.5,7.5a7.63,7.63,0,0,0,7.5,7.5Z" transform="translate(-82.34 -31.18)"/><path class="cls-3" d="M93.55,500.75c3.92,0,7.68-3.45,7.5-7.5a7.63,7.63,0,0,0-7.5-7.5c-3.92,0-7.68,3.45-7.5,7.5a7.63,7.63,0,0,0,7.5,7.5Z" transform="translate(-82.34 -31.18)"/><path class="cls-3" d="M207.61,891.58c3.92,0,7.68-3.45,7.5-7.5a7.62,7.62,0,0,0-7.5-7.5c-3.92,0-7.68,3.44-7.5,7.5a7.63,7.63,0,0,0,7.5,7.5Z" transform="translate(-82.34 -31.18)"/><path class="cls-3" d="M709.15,1014c3.92,0,7.68-3.45,7.5-7.5a7.63,7.63,0,0,0-7.5-7.5c-3.93,0-7.68,3.45-7.5,7.5a7.62,7.62,0,0,0,7.5,7.5Z" transform="translate(-82.34 -31.18)"/><path class="cls-3" d="M335.09,89.79c3.93,0,7.68-3.45,7.5-7.5a7.63,7.63,0,0,0-7.5-7.5c-3.92,0-7.68,3.45-7.5,7.5a7.63,7.63,0,0,0,7.5,7.5Z" transform="translate(-82.34 -31.18)"/><path class="cls-3" d="M887,46.18c3.92,0,7.68-3.45,7.5-7.5a7.63,7.63,0,0,0-7.5-7.5c-3.92,0-7.68,3.45-7.5,7.5a7.63,7.63,0,0,0,7.5,7.5Z" transform="translate(-82.34 -31.18)"/><path class="cls-3" d="M1187.2,291.07c3.92,0,7.68-3.45,7.5-7.5a7.63,7.63,0,0,0-7.5-7.5c-3.92,0-7.68,3.45-7.5,7.5a7.62,7.62,0,0,0,7.5,7.5Z" transform="translate(-82.34 -31.18)"/><path class="cls-3" d="M1525.61,77.6c3.93,0,7.69-3.45,7.5-7.5a7.62,7.62,0,0,0-7.5-7.5c-3.92,0-7.68,3.44-7.5,7.5a7.64,7.64,0,0,0,7.5,7.5Z" transform="translate(-82.34 -31.18)"/><path class="cls-3" d="M1368.36,831.19c3.92,0,7.68-3.45,7.5-7.5a7.64,7.64,0,0,0-7.5-7.5c-3.93,0-7.69,3.45-7.5,7.5a7.63,7.63,0,0,0,7.5,7.5Z" transform="translate(-82.34 -31.18)"/><path class="cls-3" d="M1192.23,960.35c3.92,0,7.68-3.45,7.5-7.5a7.62,7.62,0,0,0-7.5-7.5c-3.92,0-7.68,3.45-7.5,7.5a7.63,7.63,0,0,0,7.5,7.5Z" transform="translate(-82.34 -31.18)"/><path class="cls-3" d="M1193.91,640c3.92,0,7.68-3.45,7.5-7.5a7.63,7.63,0,0,0-7.5-7.5c-3.92,0-7.68,3.45-7.5,7.5a7.63,7.63,0,0,0,7.5,7.5Z" transform="translate(-82.34 -31.18)"/><path class="cls-3" d="M1417,425.26c3.92,0,7.68-3.45,7.5-7.5a7.63,7.63,0,0,0-7.5-7.5c-3.92,0-7.68,3.45-7.5,7.5a7.63,7.63,0,0,0,7.5,7.5Z" transform="translate(-82.34 -31.18)"/><path class="cls-4" d="M1051.13,259.83a112.78,112.78,0,0,1,86.35-134.09c.65-.15,1.31-.25,2-.38a140.77,140.77,0,1,0,47.73,220.34c-.65.16-1.28.33-1.94.48A112.79,112.79,0,0,1,1051.13,259.83Z" transform="translate(-82.34 -31.18)"/><path class="cls-5" d="M301.54,248.17a1.5,1.5,0,0,0,0-3,1.5,1.5,0,0,0,0,3Z" transform="translate(-82.34 -31.18)"/><path class="cls-5" d="M328.38,257.88a4.5,4.5,0,1,0-4.5-4.5,4.55,4.55,0,0,0,4.5,4.5Z" transform="translate(-82.34 -31.18)"/><path class="cls-5" d="M144.6,88.54a4.5,4.5,0,1,0-4.5-4.5,4.55,4.55,0,0,0,4.5,4.5Z" transform="translate(-82.34 -31.18)"/><path class="cls-5" d="M137.16,383.51a6,6,0,1,0-6-6,6.06,6.06,0,0,0,6,6Z" transform="translate(-82.34 -31.18)"/><path class="cls-5" d="M400.51,885a6,6,0,1,0-6-6,6.07,6.07,0,0,0,6,6Z" transform="translate(-82.34 -31.18)"/><path class="cls-5" d="M86.84,965.73a4.5,4.5,0,1,0-4.5-4.5,4.55,4.55,0,0,0,4.5,4.5Z" transform="translate(-82.34 -31.18)"/><path class="cls-5" d="M962.43,984.19a4.5,4.5,0,1,0-4.5-4.5,4.55,4.55,0,0,0,4.5,4.5Z" transform="translate(-82.34 -31.18)"/><path class="cls-5" d="M1209,791.29a4.5,4.5,0,1,0-4.5-4.5,4.56,4.56,0,0,0,4.5,4.5Z" transform="translate(-82.34 -31.18)"/><path class="cls-5" d="M1412,603.42a4.5,4.5,0,1,0-4.5-4.5,4.55,4.55,0,0,0,4.5,4.5Z" transform="translate(-82.34 -31.18)"/><path class="cls-5" d="M1121.78,430.65a4.5,4.5,0,1,0-4.5-4.5,4.55,4.55,0,0,0,4.5,4.5Z" transform="translate(-82.34 -31.18)"/><path class="cls-5" d="M679,41.5a4.5,4.5,0,1,0-4.5-4.5,4.55,4.55,0,0,0,4.5,4.5Z" transform="translate(-82.34 -31.18)"/><path class="cls-6" d="M1398.2,152.79c-67.59,1.73-69.33,69.32-69.33,69.32s1.74-67.59-65.85-65.86c67.59-1.73,69.32-69.32,69.32-69.32S1330.61,154.52,1398.2,152.79Z" transform="translate(-82.34 -31.18)"/><circle class="cls-1" cx="1217.16" cy="813.81" r="70.69"/><circle class="cls-4" cx="1267.88" cy="872.97" r="32.03"/><path class="cls-7" d="M274.2,129.22c-58.77,0-58.77,58.78-58.77,58.78s0-58.78-58.78-58.78c58.78,0,58.78-58.77,58.78-58.77S215.43,129.22,274.2,129.22Z" transform="translate(-82.34 -31.18)"/><circle class="cls-4" cx="50.13" cy="824.25" r="45.76"/><circle class="cls-6" cx="1741.26" cy="768.55" r="45.76"/><path class="cls-7" d="M1633.37,979.72c-58.77,0-58.77,58.78-58.77,58.78s0-58.78-58.78-58.78c58.78,0,58.78-58.77,58.78-58.77S1574.6,979.72,1633.37,979.72Z" transform="translate(-82.34 -31.18)"/><circle class="cls-2" cx="1654.36" cy="436.22" r="87.81"/><ellipse class="cls-8" cx="1731.61" cy="467.16" rx="41.19" ry="134.09" transform="translate(577.75 1874.23) rotate(-68.41)"/><path class="cls-2" d="M1736.15,465.28l-69.75-29.76a11.11,11.11,0,0,1-5.22-15.95c22.17-36.26,68.57-52.14,108.84-35.3,40.49,16.93,61.75,61.48,51.16,102.88a11.11,11.11,0,0,1-15.07,7.38Z" transform="translate(-82.34 -31.18)"/><path class="cls-3" d="M1779,132.52a1.5,1.5,0,0,0,0-3,1.5,1.5,0,0,0,0,3Z" transform="translate(-82.34 -31.18)"/><path class="cls-3" d="M1869.28,192.39a4.5,4.5,0,1,0-4.5-4.5,4.55,4.55,0,0,0,4.5,4.5Z" transform="translate(-82.34 -31.18)"/></svg>