<svg xmlns="http://www.w3.org/2000/svg" viewBox="0 0 199.93 60"><defs><style>.cls-1{font-size:30px;font-family:CenturyGothic-Bold, Century Gothic;font-weight:700;}.cls-1,.cls-2,.cls-3{fill:#fff;}.cls-2{stroke:#5f6ffd;stroke-miterlimit:10;}.cls-4{fill:none;}</style></defs><g id="Capa_2" data-name="Capa 2"><g id="Capa_3" data-name="Capa 3"><text class="cls-1" transform="translate(80.53 37.05)">Dreams!</text><path class="cls-2" d="M39.88,43.91a1.28,1.28,0,0,0-.23,1.25,1.07,1.07,0,0,0,.67.76,1,1,0,0,0,.44.07l-.22-.07a1.56,1.56,0,0,0,1.26-.27q1.11-1.18-.3-2.64A2.67,2.67,0,0,0,39.88,43.91Z"/><path class="cls-2" d="M23.48,14.75H23.4a4.26,4.26,0,0,0,0-1A8.38,8.38,0,0,0,23,12a3.74,3.74,0,0,0-1.33-1.87,1.76,1.76,0,0,0-.74-.28,2.84,2.84,0,0,0-2.59.83,4.36,4.36,0,0,1-.25.42,4.2,4.2,0,0,0-.41,1.21,6.39,6.39,0,0,0-.15,2,12.17,12.17,0,0,0,1.89,5,13.29,13.29,0,0,0,4,4.12h.08Z"/><path class="cls-2" d="M23.25,32.9a7.91,7.91,0,0,0-1-2.15,3.77,3.77,0,0,0-.52-.41,2.33,2.33,0,0,0-2.95.13Q16.53,33,16.53,37.75a15.92,15.92,0,0,0,.74,4.74,3.11,3.11,0,0,0,2.36,2.25,2.72,2.72,0,0,0,1.56-.41,5.3,5.3,0,0,0,1.4-1.66,7,7,0,0,0,.7-1.94,19.61,19.61,0,0,0,.26-2.57c0-.6,0-1.73-.07-3.39A15.12,15.12,0,0,0,23.25,32.9Z"/><path class="cls-3" d="M30,0A30,30,0,1,0,60,30,30,30,0,0,0,30,0ZM42.61,6a9.33,9.33,0,0,1,3.66-.55A7.58,7.58,0,0,0,52.77,19a7.85,7.85,0,0,0,1.9-1A9.42,9.42,0,1,1,42.61,6ZM52.88,36.5c-.79,2.36-2.81,4.13-6.06,5.34a2.08,2.08,0,0,1,.07.55q.38,2.91-2.73,4.71a6,6,0,0,1-3.1.83,3.72,3.72,0,0,1-1.48-.28,2.86,2.86,0,0,1-1.88-2,3.16,3.16,0,0,1,.55-2.81,3.68,3.68,0,0,1,1.63-1.24c-.79-.6-1.37-1.06-1.74-1.39s-.61-.56-1-1a22.06,22.06,0,0,1-2.83,5.5c-1.45,2.06-3,3.08-4.77,3.08H29c-.45,0-.82-.09-1.11-.14a4,4,0,0,1-1.15-.41A3.18,3.18,0,0,1,25.51,46a10.69,10.69,0,0,1-1-2.28,11.51,11.51,0,0,1-1,1.31A9.65,9.65,0,0,1,21,46.89a6.92,6.92,0,0,1-3.1.83h-.37a6.32,6.32,0,0,1-1.85-.27A5.22,5.22,0,0,1,13.5,46.2c-2-1.8-3-4.6-2.88-8.38q.22-8,4.66-10.33a6.86,6.86,0,0,1,5.09-.55,8.85,8.85,0,0,1,1.92.83,9.51,9.51,0,0,1,1.19.83v-3H23.4A15.25,15.25,0,0,1,17,18.9c-1.48-2.9-1.93-5.49-1.33-7.75A5.23,5.23,0,0,1,17.75,8a6.6,6.6,0,0,1,3.88-1.11h.15a16.39,16.39,0,0,1,2,.28l.19,0a.54.54,0,0,1,.18.11,6,6,0,0,1,3,2.07,12.08,12.08,0,0,1,2.21,6.79,1.71,1.71,0,0,1,.08.56V43.84q.28,1,1,1.11a2,2,0,0,0,1.77-.62,17,17,0,0,0,3.56-6.92,4.57,4.57,0,0,1-.35-.7,7.21,7.21,0,0,1-.48-2.15,7.54,7.54,0,0,1,.45-3.08,5.16,5.16,0,0,1,1.44-2.15,9.55,9.55,0,0,1,1.7-1.21A6.86,6.86,0,0,1,40,27.49a6.2,6.2,0,0,1,1.48-.34,5.51,5.51,0,0,1,4.14,1.45,3.77,3.77,0,0,1,1.18,3.26.77.77,0,0,1-.33.66,1.18,1.18,0,0,1-.7.24,1.62,1.62,0,0,1-.52-.21.89.89,0,0,1-.33-.34,1,1,0,0,1-.11-.49,2.09,2.09,0,0,0-.67-1.87,1.72,1.72,0,0,0-.74-.48,1.62,1.62,0,0,0-1.33,0,2.82,2.82,0,0,0-1.62,2.56,7.13,7.13,0,0,0,.26,2.94,7.11,7.11,0,0,0,2.1,2.74c.49.32.94.62,1.33.9a8.21,8.21,0,0,1,1.77,1.59q4.14-1.45,5-4.15a.87.87,0,0,1,1.22-.63A.89.89,0,0,1,52.88,36.5Z"/><path class="cls-4" d="M35.68,37.41a17,17,0,0,1-3.56,6.92,2,2,0,0,1-1.77.62q-.68-.14-1-1.11V16.76a1.71,1.71,0,0,0-.08-.56A12.08,12.08,0,0,0,27.1,9.41a6,6,0,0,0-3-2.07A.54.54,0,0,0,24,7.23l-.19,0a16.39,16.39,0,0,0-2-.28h-.15A6.6,6.6,0,0,0,17.75,8a5.23,5.23,0,0,0-2.1,3.12C15.05,13.41,15.5,16,17,18.9a15.25,15.25,0,0,0,6.42,6.66h.08v3a9.51,9.51,0,0,0-1.19-.83,8.85,8.85,0,0,0-1.92-.83,6.86,6.86,0,0,0-5.09.55q-4.44,2.37-4.66,10.33c-.1,3.78.86,6.58,2.88,8.38a5.22,5.22,0,0,0,2.22,1.25,6.32,6.32,0,0,0,1.85.27h.37a6.92,6.92,0,0,0,3.1-.83A9.65,9.65,0,0,0,23.48,45a11.51,11.51,0,0,0,1-1.31,10.69,10.69,0,0,0,1,2.28,3.18,3.18,0,0,0,1.25,1.25,4,4,0,0,0,1.15.41c.29.05.66.1,1.11.14h.51c1.73,0,3.32-1,4.77-3.08a22.06,22.06,0,0,0,2.83-5.5l-.47-.49A7.09,7.09,0,0,1,35.68,37.41ZM23.4,23.34a13.29,13.29,0,0,1-4-4.12,12.17,12.17,0,0,1-1.89-5,6.39,6.39,0,0,1,.15-2,4.2,4.2,0,0,1,.41-1.21,4.36,4.36,0,0,0,.25-.42,2.84,2.84,0,0,1,2.59-.83,1.76,1.76,0,0,1,.74.28A3.74,3.74,0,0,1,23,12a8.38,8.38,0,0,1,.48,1.8,4.26,4.26,0,0,1,0,1h.08v8.59Zm-.11,17.39a7,7,0,0,1-.7,1.94,5.3,5.3,0,0,1-1.4,1.66,2.72,2.72,0,0,1-1.56.41,3.11,3.11,0,0,1-2.36-2.25,15.92,15.92,0,0,1-.74-4.74q0-4.71,2.22-7.28a2.33,2.33,0,0,1,2.95-.13,3.77,3.77,0,0,1,.52.41,7.91,7.91,0,0,1,1,2.15,15.12,15.12,0,0,1,.23,1.87c0,1.66.07,2.79.07,3.39A19.61,19.61,0,0,1,23.29,40.73Z"/><path class="cls-4" d="M52.18,35.32A.87.87,0,0,0,51,36q-.89,2.7-5,4.15a8.21,8.21,0,0,0-1.77-1.59c-.39-.28-.84-.58-1.33-.9a7.11,7.11,0,0,1-2.1-2.74,7.13,7.13,0,0,1-.26-2.94,2.82,2.82,0,0,1,1.62-2.56,1.62,1.62,0,0,1,1.33,0,1.72,1.72,0,0,1,.74.48,2.09,2.09,0,0,1,.67,1.87,1,1,0,0,0,.11.49.89.89,0,0,0,.33.34,1.62,1.62,0,0,0,.52.21,1.18,1.18,0,0,0,.7-.24.77.77,0,0,0,.33-.66,3.77,3.77,0,0,0-1.18-3.26,5.51,5.51,0,0,0-4.14-1.45,6.2,6.2,0,0,0-1.48.34,6.86,6.86,0,0,0-1.58.63,9.55,9.55,0,0,0-1.7,1.21,5.16,5.16,0,0,0-1.44,2.15,7.54,7.54,0,0,0-.45,3.08,7.21,7.21,0,0,0,.48,2.15,4.57,4.57,0,0,0,.35.7l.06-.22a2.68,2.68,0,0,0,.15-.69.88.88,0,0,1,1.25-.62c.64.14.89.51.74,1.11-.1.32-.22.67-.37,1s-.24.8-.38,1.19c.4.4.74.73,1,1s1,.79,1.74,1.39a3.68,3.68,0,0,0-1.63,1.24,3.16,3.16,0,0,0-.55,2.81,2.86,2.86,0,0,0,1.88,2,3.72,3.72,0,0,0,1.48.28,6,6,0,0,0,3.1-.83q3.11-1.8,2.73-4.71a2.08,2.08,0,0,0-.07-.55c3.25-1.21,5.27-3,6.06-5.34A.89.89,0,0,0,52.18,35.32ZM41.8,45.65a1.56,1.56,0,0,1-1.26.27l.22.07a1,1,0,0,1-.44-.07,1.07,1.07,0,0,1-.67-.76,1.28,1.28,0,0,1,.23-1.25A2.67,2.67,0,0,1,41.5,43Q42.91,44.47,41.8,45.65Z"/><path class="cls-4" d="M37.88,37c.15-.6-.1-1-.74-1.11a.88.88,0,0,0-1.25.62,2.68,2.68,0,0,1-.15.69l-.06.22a7.09,7.09,0,0,0,1,1.31l.47.49c.14-.39.27-.79.38-1.19S37.78,37.31,37.88,37Z"/><path class="cls-4" d="M49,23.67A9.41,9.41,0,0,0,54.67,18a7.85,7.85,0,0,1-1.9,1A7.58,7.58,0,0,1,46.27,5.4,9.42,9.42,0,1,0,49,23.67Z"/></g></g></svg>